<?xml version="1.0" encoding="UTF-8"?>
<svg id="Layer_1" data-name="Layer 1" xmlns="http://www.w3.org/2000/svg" xmlns:xlink="http://www.w3.org/1999/xlink" viewBox="0 0 40 31.25">
  <defs>
    <style>
      .cls-1 {
        fill: url(#linear-gradient);
      }

      .cls-2 {
        fill: url(#linear-gradient-4);
        fill-rule: evenodd;
        isolation: isolate;
        opacity: .15;
      }

      .cls-3 {
        fill: url(#linear-gradient-8);
      }

      .cls-4 {
        fill: url(#linear-gradient-9);
      }

      .cls-5 {
        fill: url(#linear-gradient-3);
      }

      .cls-6 {
        fill: url(#linear-gradient-2);
      }

      .cls-7 {
        fill: url(#linear-gradient-6);
      }

      .cls-8 {
        fill: url(#linear-gradient-7);
      }

      .cls-9 {
        fill: url(#linear-gradient-5);
      }

      .cls-10 {
        fill: url(#linear-gradient-10);
      }
    </style>
    <linearGradient id="linear-gradient" x1="15.43" y1="14.39" x2="19.58" y2="14.39" gradientUnits="userSpaceOnUse">
      <stop offset=".26" stop-color="#ffdb6e"/>
      <stop offset="1" stop-color="#ffbc5e"/>
    </linearGradient>
    <linearGradient id="linear-gradient-2" x1="17.51" y1="17.38" x2="34.11" y2="17.38" xlink:href="#linear-gradient"/>
    <linearGradient id="linear-gradient-3" x1="5.89" y1="19.99" x2="20.01" y2="19.99" xlink:href="#linear-gradient"/>
    <linearGradient id="linear-gradient-4" x1="7.77" y1="35.82" x2="31.31" y2="1.76" gradientTransform="translate(0 33.25) scale(1 -1)" xlink:href="#linear-gradient"/>
    <linearGradient id="linear-gradient-5" x1="6.72" y1="36.4" x2="32.28" y2=".26" gradientTransform="translate(0 33.25) scale(1 -1)" xlink:href="#linear-gradient"/>
    <linearGradient id="linear-gradient-6" x1="24.91" y1="30.02" x2="25.08" y2="27.32" gradientTransform="translate(0 33.25) scale(1 -1)" xlink:href="#linear-gradient"/>
    <linearGradient id="linear-gradient-7" x1="4.01" y1="29.39" x2="5.36" y2="27.9" gradientTransform="translate(0 33.25) scale(1 -1)" xlink:href="#linear-gradient"/>
    <linearGradient id="linear-gradient-8" x1="7.14" y1="29.39" x2="8.49" y2="27.9" gradientTransform="translate(0 33.25) scale(1 -1)" xlink:href="#linear-gradient"/>
    <linearGradient id="linear-gradient-9" x1="10.26" y1="29.39" x2="11.61" y2="27.9" gradientTransform="translate(0 33.25) scale(1 -1)" xlink:href="#linear-gradient"/>
    <linearGradient id="linear-gradient-10" x1="12.29" y1="29.43" x2="27.13" y2="2.3" gradientTransform="translate(0 33.25) scale(1 -1)" xlink:href="#linear-gradient"/>
  </defs>
  <g id="Web">
    <g>
      <path class="cls-1" d="M15.43,14.39c0,1.15,.93,2.07,2.08,2.08,1.15,0,2.08-.93,2.08-2.08s-.93-2.08-2.08-2.08-2.08,.93-2.08,2.08Zm3.32,0c0,.69-.56,1.25-1.25,1.25s-1.25-.56-1.25-1.25,.56-1.25,1.25-1.25,1.25,.56,1.25,1.25Z"/>
      <path class="cls-6" d="M25.27,12.43c-.16-.16-.42-.16-.59,0l-7.06,7.06c-.16,.16-.16,.42,0,.58,.16,.16,.42,.17,.59,.01l6.76-6.76,9.13,9.13v-1.17l-8.84-8.84s0,0,0,0Z"/>
      <path class="cls-5" d="M19.29,23.81s0,0,.01,.01c.16,.16,.43,.15,.59-.01,.16-.16,.15-.43-.01-.59l-7.06-7.06h0c-.16-.16-.42-.16-.59,0l-6.35,6.35v1.17l6.64-6.64,6.76,6.76Z"/>
    </g>
    <path class="cls-2" d="M3,.62C1.9,.62,1,1.52,1,2.62V27.63c0,1.1,.9,2,2,2H37c1.1,0,2-.9,2-2V2.62c0-1.1-.9-2-2-2H3ZM36,8.62H4V27.63H36V8.62Z"/>
    <path class="cls-9" d="M37.62,0H2.38C1.07,0,0,1.07,0,2.38V28.87c0,1.31,1.07,2.38,2.38,2.38H37.62c1.31,0,2.38-1.07,2.38-2.38V2.38c0-1.31-1.07-2.38-2.38-2.38Zm.82,28.87c0,.45-.37,.82-.82,.82H2.38c-.45,0-.82-.37-.82-.82V2.38c0-.45,.37-.82,.82-.82H37.62c.45,0,.82,.37,.82,.82V28.87Z"/>
    <path class="cls-7" d="M14.92,5.42h20.16c.43,0,.78-.35,.78-.78s-.35-.78-.78-.78H14.92c-.43,0-.78,.35-.78,.78s.35,.78,.78,.78Z"/>
    <path class="cls-8" d="M3.99,4.93s.04,.09,.07,.13c.03,.04,.06,.08,.1,.12,.15,.15,.35,.23,.55,.23,.05,0,.1,0,.15-.01,.05-.01,.1-.03,.15-.04,.05-.02,.09-.04,.13-.07,.04-.03,.08-.06,.12-.1,.04-.04,.07-.08,.1-.12,.03-.04,.05-.09,.07-.13,.02-.05,.03-.1,.04-.15,.01-.05,.01-.1,.01-.15s0-.1-.01-.15c-.01-.05-.03-.1-.04-.15-.02-.05-.04-.09-.07-.14-.03-.04-.06-.08-.1-.12-.04-.04-.08-.07-.12-.1-.04-.03-.09-.05-.13-.07-.05-.02-.1-.03-.15-.04-.1-.02-.2-.02-.31,0-.05,.01-.1,.03-.15,.04-.05,.02-.09,.04-.14,.07-.04,.03-.08,.06-.12,.1-.04,.04-.07,.08-.1,.12-.03,.04-.05,.09-.07,.14-.02,.05-.03,.1-.04,.15-.01,.05-.02,.1-.02,.15s0,.1,.02,.15c.01,.05,.03,.1,.04,.15Z"/>
    <path class="cls-3" d="M7.12,4.93s.04,.09,.07,.13c.03,.04,.06,.08,.1,.12,.15,.15,.35,.23,.55,.23,.05,0,.1,0,.15-.01,.05-.01,.1-.03,.15-.04,.05-.02,.09-.04,.13-.07,.04-.03,.08-.06,.12-.1,.04-.04,.07-.08,.1-.12,.03-.04,.05-.09,.07-.13,.02-.05,.03-.1,.04-.15,.01-.05,.01-.1,.01-.15s0-.1-.01-.15c-.01-.05-.03-.1-.04-.15-.02-.05-.04-.09-.07-.14-.03-.04-.06-.08-.1-.12-.04-.04-.08-.07-.12-.1-.04-.03-.09-.05-.13-.07-.05-.02-.1-.03-.15-.04-.1-.02-.2-.02-.31,0-.05,.01-.1,.03-.15,.04-.05,.02-.09,.04-.14,.07-.04,.03-.08,.06-.12,.1-.04,.04-.07,.08-.1,.12-.03,.04-.05,.09-.07,.14-.02,.05-.03,.1-.04,.15-.01,.05-.02,.1-.02,.15s0,.1,.02,.15c.01,.05,.03,.1,.04,.15Z"/>
    <path class="cls-4" d="M10.24,4.93s.04,.09,.07,.13c.03,.04,.06,.08,.1,.12,.04,.04,.08,.07,.12,.1,.04,.03,.09,.05,.14,.07,.05,.02,.1,.03,.15,.04,.05,.01,.1,.01,.15,.01s.1,0,.15-.01c.05-.01,.1-.03,.15-.04s.09-.04,.14-.07c.04-.03,.08-.06,.12-.1,.04-.04,.07-.08,.1-.12,.03-.04,.05-.09,.07-.13,.02-.05,.03-.1,.04-.15,.01-.05,.01-.1,.01-.15s0-.1-.01-.15c-.01-.05-.02-.1-.04-.15-.02-.05-.04-.09-.07-.14-.03-.04-.06-.08-.1-.12-.04-.04-.08-.07-.12-.1-.04-.03-.09-.05-.14-.07-.05-.02-.1-.03-.15-.04-.1-.02-.2-.02-.31,0-.05,.01-.1,.03-.15,.04-.05,.02-.09,.04-.14,.07-.04,.03-.08,.06-.12,.1-.04,.04-.07,.08-.1,.12-.03,.04-.05,.09-.07,.14-.02,.05-.03,.1-.04,.15-.01,.05-.02,.1-.02,.15s0,.1,.02,.15c.01,.05,.03,.1,.04,.15Z"/>
    <path class="cls-10" d="M36.04,7.76H3.96c-.43,0-.78,.35-.78,.78V27.29c0,.43,.35,.78,.78,.78H13.26c.43,0,.78-.35,.78-.78s-.35-.78-.78-.78H4.74V9.32h30.53V26.51h-15.73c-.43,0-.78,.35-.78,.78s.35,.78,.78,.78h16.51c.43,0,.78-.35,.78-.78V8.54c0-.43-.35-.78-.78-.78Z"/>
  </g>
</svg>