<?xml version="1.0" encoding="UTF-8"?>
<svg id="Layer_1" data-name="Layer 1" xmlns="http://www.w3.org/2000/svg" xmlns:xlink="http://www.w3.org/1999/xlink" viewBox="0 0 42.65 42">
  <defs>
    <style>
      .cls-1 {
        fill: url(#linear-gradient);
      }

      .cls-2 {
        fill: url(#linear-gradient-11);
        fill-rule: evenodd;
        isolation: isolate;
        opacity: .15;
      }

      .cls-3 {
        fill: url(#linear-gradient-8);
      }

      .cls-4 {
        fill: url(#linear-gradient-9);
      }

      .cls-5 {
        fill: url(#linear-gradient-3);
      }

      .cls-6 {
        fill: url(#linear-gradient-4);
      }

      .cls-7 {
        fill: url(#linear-gradient-2);
      }

      .cls-8 {
        fill: url(#linear-gradient-6);
      }

      .cls-9 {
        fill: url(#linear-gradient-7);
      }

      .cls-10 {
        fill: url(#linear-gradient-5);
      }

      .cls-11 {
        fill: url(#linear-gradient-10);
      }
    </style>
    <linearGradient id="linear-gradient" x1="0" y1="31.9" x2="35.75" y2="31.9" gradientUnits="userSpaceOnUse">
      <stop offset=".26" stop-color="#ffdb6e"/>
      <stop offset="1" stop-color="#ffbc5e"/>
    </linearGradient>
    <linearGradient id="linear-gradient-2" x1=".01" y1="36.39" x2="1.68" y2="36.39" gradientUnits="userSpaceOnUse">
      <stop offset=".26" stop-color="#ffdb6e"/>
      <stop offset="1" stop-color="#ffdb6d"/>
    </linearGradient>
    <linearGradient id="linear-gradient-3" x1="7.14" y1="3.88" y2="3.88" xlink:href="#linear-gradient"/>
    <linearGradient id="linear-gradient-4" x1=".01" y1="5.02" x2="8.81" y2="5.02" xlink:href="#linear-gradient"/>
    <linearGradient id="linear-gradient-5" x1="27.05" y1="14.65" x2="42.65" y2="14.65" gradientUnits="userSpaceOnUse">
      <stop offset=".26" stop-color="#ffdb6e"/>
      <stop offset="1" stop-color="#ffbc5e"/>
    </linearGradient>
    <linearGradient id="linear-gradient-6" x1="32.07" y1="14.65" x2="37.64" y2="14.65" xlink:href="#linear-gradient-5"/>
    <linearGradient id="linear-gradient-7" x1="13.78" y1="21.61" x2="22.21" y2="15.48" gradientTransform="translate(0 46.66) scale(1 -1)" xlink:href="#linear-gradient-5"/>
    <linearGradient id="linear-gradient-8" x1="5.83" y1="20.96" x2="13.82" y2="17.15" gradientTransform="translate(0 46.66) scale(1 -1)" xlink:href="#linear-gradient-5"/>
    <linearGradient id="linear-gradient-9" x1="22.19" y1="19.78" x2="30.18" y2="15.97" gradientTransform="translate(0 46.66) scale(1 -1)" xlink:href="#linear-gradient-5"/>
    <linearGradient id="linear-gradient-10" x1="-3.62" y1="-.88" x2="-3.45" y2="-3.63" gradientTransform="translate(-1.46 15.21) rotate(-90) scale(1 -1)" xlink:href="#linear-gradient-5"/>
    <linearGradient id="linear-gradient-11" x1="5.45" y1="3.13" x2="31.49" y2="40.81" xlink:href="#linear-gradient-5"/>
  </defs>
  <g id="Layer_2" data-name="Layer 2">
    <g>
      <g>
        <g>
          <path class="cls-1" d="M1.67,36.39v3.94H34.08V22.64c0-.46,.38-.84,.84-.84s.84,.38,.84,.84v18.53c0,.47-.38,.84-.84,.84H.84c-.46,0-.84-.38-.84-.84v-4.78"/>
          <path class="cls-7" d="M.01,40.02v-6.5c0-.42,.38-.77,.84-.77s.84,.35,.84,.77v6.5"/>
        </g>
        <path class="cls-5" d="M34.91,7.76c-.46,0-.84-.38-.84-.84V1.68H7.98c-.46,0-.84-.38-.84-.84S7.52,0,7.98,0h26.94c.46,0,.84,.38,.84,.84V6.92c0,.46-.38,.84-.84,.84Z"/>
        <path class="cls-6" d="M7.98,10.04H.85c-.32,0-.62-.19-.76-.49s-.09-.65,.12-.89L7.34,.3c.22-.27,.6-.37,.92-.25,.32,.12,.55,.43,.55,.78V9.2c0,.47-.37,.85-.84,.85Zm-5.32-1.67H7.14V3.1L2.65,8.37Z"/>
      </g>
      <g>
        <path class="cls-10" d="M42.65,14.65c0-1.1-.8-2.01-1.84-2.19l-.19-.47c.61-.87,.53-2.08-.25-2.85-.75-.75-2-.85-2.85-.25l-.47-.19c-.18-1.04-1.1-1.84-2.19-1.84s-2.01,.8-2.19,1.84l-.47,.19c-.87-.61-2.08-.53-2.85,.25-.42,.42-.65,.98-.65,1.58,0,.46,.14,.91,.4,1.28l-.19,.46c-1.05,.18-1.84,1.1-1.84,2.19h0c0,1.1,.8,2.01,1.84,2.19l.19,.46c-.61,.87-.53,2.08,.25,2.85,.75,.75,2.01,.85,2.85,.25l.47,.19c.18,1.04,1.1,1.84,2.19,1.84s2.01-.8,2.19-1.84l.47-.19c.87,.61,2.08,.53,2.85-.25,.42-.42,.65-.98,.65-1.58,0-.46-.14-.91-.4-1.28l.19-.46c1.04-.18,1.84-1.1,1.84-2.19t0,0h0Zm-2.23,1.12c-.23,0-.43,.14-.51,.34l-.45,1.09c-.09,.21-.04,.45,.12,.61,.21,.21,.33,.49,.33,.79s-.12,.58-.33,.79c-.43,.43-1.14,.43-1.58,0-.16-.16-.4-.21-.61-.12l-1.09,.45c-.21,.09-.34,.29-.34,.51,0,.61-.5,1.11-1.11,1.11s-1.11-.5-1.11-1.11c0-.23-.14-.43-.34-.51l-1.09-.45c-.21-.09-.45-.04-.61,.12-.42,.42-1.15,.42-1.58,0-.43-.43-.43-1.14,0-1.58,.16-.16,.21-.4,.12-.61l-.45-1.09c-.09-.21-.29-.34-.51-.34-.61,0-1.11-.5-1.11-1.11h0c0-.61,.5-1.11,1.11-1.11,.23,0,.43-.14,.51-.34l.45-1.09c.09-.21,.04-.45-.12-.61-.21-.21-.33-.49-.33-.79s.12-.58,.33-.79c.43-.43,1.14-.43,1.58,0,.16,.16,.4,.21,.61,.12l1.09-.45c.21-.09,.34-.29,.34-.51,0-.61,.5-1.11,1.11-1.11s1.11,.5,1.11,1.11c0,.23,.14,.43,.34,.51l1.09,.45c.21,.09,.45,.04,.61-.12,.42-.42,1.15-.42,1.58,0,.43,.43,.43,1.14,0,1.58-.16,.16-.21,.4-.12,.61l.45,1.09c.09,.21,.29,.34,.51,.34,.61,0,1.11,.5,1.11,1.11h0c0,.61-.5,1.12-1.11,1.12Z"/>
        <path class="cls-8" d="M34.85,11.86c-1.54,0-2.78,1.25-2.78,2.78s1.25,2.78,2.78,2.78c.31,0,.56-.25,.56-.56s-.25-.56-.56-.56c-.92,0-1.67-.75-1.67-1.67s.75-1.67,1.67-1.67,1.67,.75,1.67,1.67c0,.32-.09,.64-.27,.91-.17,.26-.09,.6,.16,.77,.26,.17,.6,.09,.77-.16,.29-.45,.45-.98,.45-1.51,0-1.54-1.25-2.78-2.78-2.78Z"/>
      </g>
    </g>
    <path class="cls-9" d="M21.11,23.25c-.4-.24-.92-.1-1.16,.3l-5.03,8.51c-.24,.4-.11,.92,.3,1.16,.14,.08,.28,.12,.43,.12,.29,0,.57-.15,.73-.42l5.03-8.51c.24-.4,.1-.92-.3-1.16Z"/>
    <path class="cls-3" d="M10.54,25.74v-.86c0-.47,.39-.86,.86-.86h.01c.47,0,.85-.38,.85-.85s-.38-.85-.85-.85h-.01c-1.41,0-2.56,1.15-2.56,2.56v.86c0,.31-.13,.61-.35,.82l-1.1,1.08c-.16,.16-.25,.37-.26,.6,0,.23,.09,.44,.25,.6l1.12,1.12c.22,.22,.34,.5,.34,.81v.89c.02,1.4,1.16,2.54,2.56,2.54,.47,0,.85-.38,.85-.85s-.38-.85-.85-.85-.86-.38-.86-.85v-.89c-.01-.75-.31-1.46-.84-2l-.51-.51,.49-.48c.54-.53,.86-1.28,.86-2.04Z"/>
    <path class="cls-4" d="M25.79,30.79v.86c0,.47-.39,.86-.86,.86h-.01c-.47,0-.85,.38-.85,.85s.38,.85,.85,.85h.01c1.41,0,2.56-1.15,2.56-2.56v-.86c0-.31,.13-.61,.35-.82l1.1-1.08c.16-.16,.25-.38,.25-.6,0-.23-.09-.44-.25-.6l-1.12-1.12c-.22-.22-.34-.5-.34-.81v-.89c-.02-1.4-1.16-2.54-2.56-2.54-.47,0-.85,.38-.85,.85s.38,.85,.85,.85,.86,.38,.86,.85v.89c.01,.75,.31,1.46,.84,2l.51,.51-.49,.48c-.54,.53-.86,1.28-.86,2.04Z"/>
    <path class="cls-11" d="M1.7,28.18V9.3c0-.4-.38-.73-.85-.73S0,8.9,0,9.3V28.18C0,28.58,.38,28.91,.85,28.91s.85-.33,.85-.73Z"/>
  </g>
  <path class="cls-2" d="M34.85,22.03v19.23H.85V9.35L7.82,.9h27.03V7.4c-.89,.23-1.32,.62-1.56,.97-.33,.48-.28,.87-.62,1.03-.4,.18-.66-.25-1.46-.32-.21-.02-.98-.08-1.48,.39-.62,.58-.47,1.63-.45,1.76,.1,.61,.38,.78,.26,1.14-.12,.35-.43,.32-.97,.77-.3,.25-.81,.68-.9,1.33-.11,.77,.43,1.4,.47,1.44,.5,.55,.95,.34,1.2,.77,.31,.53-.31,.98-.13,1.99,.04,.22,.14,.77,.58,1.14,.46,.38,1.05,.37,1.42,.36,.82-.01,.97-.33,1.35-.17,.53,.21,.42,.88,1.03,1.46,.41,.39,.91,.53,1.26,.58Z"/>
</svg>