<?xml version="1.0" encoding="UTF-8"?>
<svg id="Layer_1" data-name="Layer 1" xmlns="http://www.w3.org/2000/svg" xmlns:xlink="http://www.w3.org/1999/xlink" viewBox="0 0 96.55 96.6">
  <defs>
    <style>
      .cls-1 {
        fill: url(#linear-gradient);
        fill-rule: evenodd;
        opacity: .15;
      }

      .cls-1, .cls-2 {
        isolation: isolate;
      }

      .cls-3 {
        fill: url(#linear-gradient-3);
      }

      .cls-4 {
        fill: url(#linear-gradient-4);
      }

      .cls-5 {
        fill: url(#linear-gradient-2);
      }

      .cls-6 {
        fill: url(#linear-gradient-6);
      }

      .cls-7 {
        fill: url(#linear-gradient-7);
      }

      .cls-8 {
        fill: url(#linear-gradient-5);
      }
    </style>
    <linearGradient id="linear-gradient" x1="1.21" y1="48.09" x2="95.44" y2="48.09" gradientUnits="userSpaceOnUse">
      <stop offset=".26" stop-color="#ffdb6e"/>
      <stop offset="1" stop-color="#ffbc5e"/>
    </linearGradient>
    <linearGradient id="linear-gradient-2" x1="0" y1="48.3" x2="96.55" y2="48.3" xlink:href="#linear-gradient"/>
    <linearGradient id="linear-gradient-3" x1="21.92" y1="55.03" x2="29.27" y2="55.03" xlink:href="#linear-gradient"/>
    <linearGradient id="linear-gradient-4" x1="12.61" y1="64.38" x2="19.87" y2="64.38" xlink:href="#linear-gradient"/>
    <linearGradient id="linear-gradient-5" x1="49.1" y1="28.98" x2="54.1" y2="28.98" xlink:href="#linear-gradient"/>
    <linearGradient id="linear-gradient-6" x1="56.2" y1="21.95" x2="61.19" y2="21.95" xlink:href="#linear-gradient"/>
    <linearGradient id="linear-gradient-7" x1="63.3" y1="14.9" x2="68.29" y2="14.9" xlink:href="#linear-gradient"/>
  </defs>
  <polygon class="cls-1" points="68.78 1.13 1.21 68.4 26.58 95.05 35.33 90.18 19.24 73.87 73.08 20.86 88.63 37.09 95.44 27.58 68.78 1.13"/>
  <g class="cls-2">
    <path class="cls-5" d="M96.54,28.1c.11,2.53-1.14,4.48-2.88,6.22-6.68,6.68-13.36,13.36-20.04,20.03-13,13-26.03,25.98-38.99,39.02-2.76,2.78-5.78,4.05-9.62,2.67-1.15-.41-2.05-1.18-2.89-2.02-6.65-6.64-13.31-13.27-19.94-19.94-3.06-3.08-2.88-8.06,.37-11.32,9.67-9.69,19.35-19.36,29.03-29.04,10.26-10.26,20.52-20.52,30.78-30.78,3.91-3.91,8.48-3.9,12.4,.01,6.26,6.26,12.52,12.52,18.79,18.77,1.77,1.76,3.12,3.7,2.99,6.39ZM28.13,93.17c1.43-.09,2.49-.91,3.55-1.83,.97-.83,.91-1.4,0-2.29-4.46-4.38-8.86-8.82-13.27-13.24-1.87-1.87-1.87-2.47,.03-4.37,17.38-17.38,34.77-34.77,52.15-52.15,1.84-1.84,2.53-1.83,4.4,.03,4.1,4.09,8.17,8.21,12.3,12.28,2.32,2.29,1.6,2.51,4.17-.11,2.27-2.31,2.24-4.65-.05-6.95-6.47-6.49-12.96-12.97-19.45-19.45-2.08-2.07-4.13-2.16-6.42-.3-.46,.37-.88,.79-1.3,1.21C47.83,22.43,31.41,38.84,15,55.27c-3.48,3.48-7,6.94-10.35,10.54-1.8,1.93-1.63,4.11,.22,5.98,6.59,6.63,13.21,13.23,19.84,19.83,.93,.93,2.04,1.53,3.42,1.56Zm14.5-12.98c-.19-.25-.34-.47-.52-.66-.77-.78-1.59-1.51-2.3-2.33-.73-.84-1.28-.89-2.07-.01-1.33,1.47-2.25,1.43-3.67,.02-2.42-2.41-4.85-4.81-7.24-7.26-.69-.71-1.2-.8-1.89-.02-.88,.98-1.82,1.92-2.8,2.8-.76,.67-.76,1.13-.02,1.86,4.12,4.06,8.21,8.15,12.28,12.27,.66,.67,1.09,.73,1.76,.02,1.95-2.04,3.97-4.01,5.96-6.02,.19-.19,.33-.41,.53-.67Zm36.85-37.07c.41,.01,.59-.21,.78-.4,1.94-1.93,3.86-3.87,5.81-5.79,.6-.59,.5-1.06-.05-1.62-4.19-4.18-8.38-8.37-12.55-12.57-.5-.5-.87-.53-1.36-.01-.91,.96-1.83,1.91-2.8,2.8-.7,.64-.68,1.14-.01,1.81,2.36,2.34,4.63,4.77,7.02,7.08,1.69,1.64,1.82,2.33,.19,4.07-.62,.67-.76,1.13-.01,1.78,.82,.72,1.55,1.54,2.34,2.3,.22,.22,.48,.4,.66,.55Zm-19.58-8.45c-.65,.75-1.25,1.57-1.98,2.24-.77,.72-.81,1.23-.02,2,2.4,2.31,4.73,4.68,7.08,7.04,1.66,1.66,1.67,2.42-.05,4.07-.59,.57-.69,.98-.06,1.56,.83,.78,1.63,1.59,2.41,2.42,.6,.64,1.11,.62,1.72,0,2.43-2.47,4.89-4.92,7.36-7.35,.6-.59,.58-1.04-.01-1.59-.77-.72-1.55-1.43-2.21-2.24-.82-1-1.39-.81-2.13,.09-1.18,1.42-2.11,1.42-3.42,.12-2.49-2.48-4.97-4.97-7.46-7.44-.28-.28-.51-.65-1.23-.93Zm-14.72,42.8c.5-.07,.76-.41,1.04-.69,1.84-1.83,3.66-3.68,5.5-5.51q2.54-2.52,.04-4.98c-.13-.13-.26-.25-.37-.4-.75-1.03-1.4-.96-2.27-.03-1.3,1.38-2.07,1.36-3.45,.01-2.12-2.06-4.18-4.19-6.27-6.28-2.08-2.08-2.03-2.02-4.21,.03-1,.94-.88,1.49,.05,2.37,2.47,2.35,4.85,4.81,7.26,7.22,.77,.77,1.2,1.59,.5,2.66-.45,.69-1.65,1.09-1.3,2.04,.27,.75,1.1,1.29,1.69,1.92,.38,.4,.76,.78,1.16,1.16,.19,.18,.42,.32,.62,.47Zm20.19-20.13c-.02-.35-.27-.56-.49-.79-.7-.72-1.42-1.41-2.1-2.16-.74-.81-1.33-.82-2.13,0-1.4,1.44-2.26,1.4-3.7-.02-1.98-1.95-3.93-3.93-5.9-5.9-2.49-2.49-2.48-2.48-4.85,.17-.51,.57-.51,.9,.06,1.45,2.4,2.31,4.74,4.67,7.1,7.02,1.91,1.91,1.93,2.35,.07,4.35-.51,.55-.6,.93-.02,1.46,.87,.8,1.71,1.64,2.51,2.51,.63,.69,1.1,.55,1.69-.05,2.37-2.4,4.77-4.78,7.15-7.16,.25-.25,.56-.48,.6-.88Zm.63-28.13c-.46,0-3.03,2.56-3,2.95,.02,.21,.13,.44,.28,.59,2.12,2.13,4.25,4.25,6.37,6.38,.51,.51,1.03,.43,1.38-.11,.65-.99,2.28-1.3,2.02-2.92-.01-.08-.11-.14-.18-.2-2.06-2.06-4.12-4.12-6.19-6.17-.22-.22-.5-.38-.69-.51Zm-4.25,18.75c-.08-.43-.39-.64-.64-.9-1.45-1.46-2.9-2.9-4.35-4.36-2.41-2.4-2.38-2.38-4.75,.13-.63,.67-.56,1.1,.05,1.69,1.67,1.62,3.3,3.28,4.95,4.92,2.05,2.05,1.6,1.98,3.61-.01,.45-.44,.93-.88,1.14-1.47Zm-22.92,22.86c0-.42-.37-.67-.65-.96-1.41-1.42-2.81-2.86-4.26-4.25-2.78-2.67-1.73-2.82-4.78,.1-.57,.54-.7,.95-.06,1.56,2.06,2,4.07,4.06,6.1,6.09,.25,.25,.48,.58,.91,.5,.36-.06,2.71-2.64,2.74-3.04Zm4.13-18.74c-.16,.12-.4,.25-.59,.43-.63,.6-1.21,1.24-1.86,1.82-.59,.53-.5,.95,.03,1.47,1.57,1.53,3.1,3.09,4.65,4.65,2.39,2.41,2.37,2.4,4.6-.21,.57-.67,.55-1.16-.05-1.75-1.98-1.96-3.93-3.94-5.9-5.9-.22-.22-.43-.48-.88-.5Z"/>
    <path class="cls-3" d="M23.65,58.74c-.75-.06-1.28-.31-1.53-.92-.28-.67-.3-1.4,.2-1.93,1.34-1.42,2.72-2.81,4.16-4.13,.62-.57,1.43-.61,2.12,0,.72,.63,.9,1.53,.36,2.21-1.32,1.67-2.84,3.18-4.52,4.51-.23,.18-.59,.2-.79,.27Z"/>
    <path class="cls-4" d="M19.87,62.48c0,.59-.29,1.03-.69,1.43-1.16,1.15-2.31,2.31-3.47,3.47-.78,.78-1.65,.97-2.55,.26-.74-.59-.74-1.85,.04-2.68,1.22-1.28,2.49-2.52,3.76-3.75,.57-.55,1.27-.68,2.01-.29,.63,.33,.9,.87,.89,1.56Z"/>
    <path class="cls-8" d="M54.09,29.01c-.02,1.46-1.07,2.49-2.51,2.48-1.44-.02-2.52-1.11-2.49-2.51,.03-1.41,1.13-2.49,2.53-2.51,1.34-.02,2.49,1.18,2.47,2.55Z"/>
    <path class="cls-6" d="M58.73,19.45c1.44,.02,2.48,1.09,2.46,2.52-.02,1.39-1.17,2.52-2.54,2.49-1.39-.03-2.47-1.16-2.46-2.57,.01-1.42,1.09-2.46,2.54-2.44Z"/>
    <path class="cls-7" d="M65.86,12.41c1.43,.03,2.47,1.13,2.43,2.55-.04,1.35-1.26,2.49-2.6,2.43-1.47-.07-2.43-1.11-2.39-2.59,.04-1.47,1.07-2.42,2.56-2.39Z"/>
  </g>
</svg>