<?xml version="1.0" encoding="UTF-8"?>
<svg id="Layer_1" data-name="Layer 1" xmlns="http://www.w3.org/2000/svg" xmlns:xlink="http://www.w3.org/1999/xlink" viewBox="0 0 460.47 460.47">
  <defs>
    <style>
      .cls-1 {
        fill: url(#linear-gradient);
      }

      .cls-2 {
        fill: #1e1e1f;
      }
    </style>
    <linearGradient id="linear-gradient" x1="19.47" y1="230.23" x2="440.99" y2="230.23" gradientUnits="userSpaceOnUse">
      <stop offset=".28" stop-color="#ffdb6f"/>
      <stop offset=".84" stop-color="#fdbc5f"/>
    </linearGradient>
  </defs>
  <path class="cls-1" d="M230.23,440.99c-116.22,0-210.76-94.55-210.76-210.76S114.02,19.47,230.23,19.47s210.76,94.55,210.76,210.76-94.55,210.76-210.76,210.76Z"/>
  <g>
    <path class="cls-2" d="M131.38,291.91c-9.94-6.1-17.54-14.39-22.8-24.85-5.26-10.46-7.89-22.25-7.89-35.37,0-12.34,2.56-24.13,7.7-35.37,5.13-11.24,12.79-20.36,23-27.38,10.2-7.02,22.51-10.52,36.93-10.52,5.58,0,11.92,.85,19,2.53,7.08,1.69,13.09,4.03,18.03,7.01h.2l-.78-8.18h15v45.4h-12.67c-1.69-10.52-5.78-18.58-12.28-24.16-6.5-5.58-14.49-8.44-23.97-8.57-8.57,0-15.85,2.57-21.83,7.7-5.98,5.13-10.46,11.92-13.45,20.36-2.99,8.45-4.48,17.54-4.48,27.28,0,17.28,3.57,31.25,10.72,41.9,7.14,10.65,17.15,15.98,30.01,15.98,4.16,0,8.93-.45,14.32-1.36,5.39-.91,9.77-2.21,13.15-3.9v-18.12c0-7.27,.26-13.12,.78-17.54-3.38,.26-6.56,.39-9.55,.39l-5.07,.2v-15h51.83v12.86c-3.25,.13-5.78,.58-7.6,1.36-1.82,.78-3.18,2.37-4.09,4.77-.91,2.41-1.36,6.01-1.36,10.82v31.18h-4.68c-2.99,0-5.94,.33-8.87,.97-2.92,.65-6.66,1.69-11.21,3.12-6.76,1.95-12.41,3.38-16.95,4.29-4.55,.91-9.74,1.36-15.59,1.36-13.77,0-25.62-3.05-35.56-9.16Z"/>
    <path class="cls-2" d="M293.12,298.54c-6.04-1.69-11.59-4.03-16.66-7.02h-.2l.58,8.18h-15v-45.6h12.86c1.69,10.65,5.78,18.8,12.28,24.46,6.5,5.65,14.42,8.48,23.77,8.48,6.75,0,12.34-1.78,16.76-5.36,4.42-3.57,6.62-7.89,6.62-12.96,0-4.16-1.46-7.73-4.38-10.72-2.92-2.99-6.17-5.33-9.74-7.01-3.57-1.69-9.26-4.09-17.05-7.21-14.29-5.71-25.24-12.21-32.83-19.49-7.6-7.27-11.4-16.82-11.4-28.65,0-5.97,1.49-11.79,4.48-17.44,2.99-5.65,7.89-10.36,14.71-14.13,6.82-3.77,15.62-5.65,26.41-5.65,5.58,0,11.43,.81,17.54,2.44,6.1,1.63,11.17,3.93,15.2,6.92h.2l-.78-7.99h15.2v45.4h-12.86c-1.69-10.65-5.43-18.77-11.21-24.36-5.78-5.58-13.15-8.38-22.12-8.38-5.85,0-10.88,1.59-15.1,4.77-4.22,3.18-6.33,7.18-6.33,11.98,0,5.72,2.4,10.52,7.21,14.42,4.8,3.9,12.93,8.18,24.36,12.86,13.12,5.2,23.8,11.21,32.06,18.03,8.25,6.82,12.37,15.88,12.37,27.18,0,7.67-2.08,14.49-6.24,20.46-4.16,5.98-10,10.62-17.54,13.93-7.54,3.31-16.24,4.97-26.11,4.97-5.33,0-11.01-.85-17.05-2.53Z"/>
  </g>
</svg>